<svg width="20" height="20" viewBox="0 0 20 20" fill="none" xmlns="http://www.w3.org/2000/svg">
<path d="M9.9995 0C15.5189 0 20 4.48112 20 9.9995C20 15.5189 15.5189 20 9.9995 20C4.48112 20 0 15.5189 0 9.9995C0 4.48112 4.48112 0 9.9995 0ZM9.9995 8.93523L7.27782 6.21255C7.13178 6.06652 6.93874 5.9935 6.74669 5.9935C6.34259 5.9935 5.9965 6.31758 5.9965 6.74269C5.9965 6.93573 6.06952 7.12678 6.21555 7.27382L8.93823 9.9965L6.20955 12.7252C6.06252 12.8722 5.9895 13.0653 5.9895 13.2563C5.9895 13.6834 6.33959 14.0065 6.74069 14.0065C6.93273 14.0065 7.12478 13.9335 7.27082 13.7874L9.9995 11.0588L12.7292 13.7874C12.8752 13.9335 13.0673 14.0065 13.2593 14.0065C13.6604 14.0065 14.0095 13.6834 14.0095 13.2563C14.0095 13.0653 13.9365 12.8722 13.7894 12.7252L11.0618 9.9965L13.7794 7.27882C13.9255 7.13178 13.9985 6.94074 13.9985 6.74769C13.9985 6.32258 13.6524 5.9975 13.2483 5.9975C13.0563 5.9975 12.8632 6.07052 12.7172 6.21755L9.9995 8.93523Z" fill="#DDDDDD"/>
</svg>
