<svg width="258" height="40" viewBox="0 0 258 40" fill="none" xmlns="http://www.w3.org/2000/svg">
<path fill-rule="evenodd" clip-rule="evenodd" d="M25.3135 5.63458L12.7561 1.01005H32.5205L25.3135 5.63458ZM0.716569 19.8191L10.8663 2.16435L7.87408 21.4508L0.716569 19.8191ZM10.797 37.6244L0.914106 20.4337L7.86362 22.018L10.797 37.6244ZM32.9231 38.8991H12.9477L29.6283 33.5412L32.9231 38.8991ZM43.5358 21.1161L33.4384 38.6799L30.1065 33.2618L43.5358 21.1161ZM25.8363 5.95828L43.7121 19.0997L33.3758 1.1204L25.8363 5.95828ZM33.6317 0.45459L11.2106 0.45459L0 19.9546L11.2106 39.4546H33.6317L44.8422 19.9546L33.6317 0.45459ZM24.8246 6.04617L11.5805 1.16872L8.49625 21.0486L24.8246 6.04617ZM8.47961 22.3006L29.0369 33.148L11.5729 38.7576L8.47961 22.3006ZM29.9418 32.6633L25.7279 6.56697L43.9689 19.9769L29.9418 32.6633ZM25.1559 6.49466L8.57887 21.7255L29.3883 32.706L25.1559 6.49466ZM205.05 28.3838L207.034 23.8846H213.456L215.454 28.3838H218.789L210.252 9.91213L201.74 28.3838H205.05ZM207.887 21.3851H212.632L210.252 15.8361L207.887 21.3851ZM189.176 26.7591L183.875 17.7357L182.68 28.3838H179.643L182.033 10.0121L189.176 21.885L196.344 10.0121L198.734 28.3838H195.697L194.502 17.7357L189.176 26.7591ZM90.2798 19.6354C90.2798 18.4356 90.537 17.3691 91.0514 16.436C91.5658 15.4861 92.2627 14.7446 93.1421 14.2114C94.0381 13.6781 95.0586 13.4115 96.2035 13.4115C97.3816 13.4115 98.4103 13.6781 99.2898 14.2114C100.186 14.7446 100.883 15.4861 101.38 16.436C101.878 17.3691 102.127 18.4356 102.127 19.6354C102.127 20.8352 101.87 21.9016 101.356 22.8348C100.858 23.768 100.161 24.5095 99.2649 25.0594C98.3855 25.5926 97.365 25.8592 96.2035 25.8592C95.0586 25.8592 94.0381 25.5926 93.1421 25.0594C92.2627 24.5095 91.5658 23.768 91.0514 22.8348C90.537 21.9016 90.2798 20.8352 90.2798 19.6354ZM87.1686 19.6354C87.1686 20.9351 87.3926 22.1433 87.8406 23.2597C88.2887 24.3762 88.9192 25.3427 89.7322 26.1592C90.5453 26.9757 91.4994 27.6173 92.5945 28.0838C93.7062 28.5338 94.9092 28.7587 96.2035 28.7587C97.5309 28.7587 98.7422 28.5338 99.8373 28.0838C100.932 27.6173 101.887 26.9757 102.7 26.1592C103.513 25.3427 104.143 24.3762 104.591 23.2597C105.039 22.1433 105.263 20.9351 105.263 19.6354C105.263 18.3189 105.039 17.1108 104.591 16.011C104.143 14.9112 103.504 13.9614 102.675 13.1615C101.862 12.345 100.908 11.7118 99.8125 11.2619C98.7173 10.7953 97.5143 10.562 96.2035 10.562C94.9258 10.562 93.7311 10.7953 92.6194 11.2619C91.5243 11.7118 90.5619 12.345 89.7322 13.1615C88.9192 13.9614 88.2887 14.9112 87.8406 16.011C87.3926 17.1108 87.1686 18.3189 87.1686 19.6354ZM54.9903 28.3838V10.887H56.7326H57.9273H60.242C61.5196 10.887 62.6231 11.1119 63.5523 11.5618C64.4815 11.9951 65.2033 12.62 65.7177 13.4365C66.2486 14.2363 66.5141 15.1945 66.5141 16.311C66.5141 17.4274 66.2486 18.3939 65.7177 19.2104C65.2033 20.027 64.4815 20.6602 63.5523 21.1101C62.6231 21.5434 61.5196 21.76 60.242 21.76H57.9273V28.3838H54.9903ZM57.9273 19.1605H60.242C61.2541 19.1605 62.0672 18.9188 62.6811 18.4356C63.2951 17.9523 63.602 17.2441 63.602 16.311C63.602 15.3778 63.2951 14.6779 62.6811 14.2114C62.0672 13.7281 61.2541 13.4865 60.242 13.4865H57.9273V19.1605ZM76.1211 21.76L80.5051 28.3838H84.0643L79.1375 21.4402C79.4609 21.3437 79.7675 21.2253 80.0571 21.0851C80.9863 20.6352 81.7081 20.002 82.2224 19.1855C82.7534 18.3689 83.0189 17.4108 83.0189 16.311C83.0189 15.2112 82.7534 14.2613 82.2224 13.4615C81.7081 12.645 80.9863 12.0117 80.0571 11.5618C79.1279 11.1119 78.0244 10.887 76.7468 10.887H74.3076H73.1129H71.3707V28.3838H74.3076V21.76H76.1211ZM74.3076 13.4365V19.3104H76.6223C77.3026 19.3104 77.8917 19.2021 78.3895 18.9855C78.8873 18.7522 79.2772 18.4189 79.5593 17.9857C79.8414 17.5358 79.9824 17.0025 79.9824 16.386C79.9824 15.7527 79.8414 15.2195 79.5593 14.7862C79.2772 14.353 78.8873 14.0197 78.3895 13.7864C77.8917 13.5531 77.3026 13.4365 76.6223 13.4365H74.3076ZM113.147 16.386C112.599 17.3025 112.325 18.3856 112.325 19.6354C112.325 20.8685 112.599 21.9516 113.147 22.8848C113.711 23.8013 114.441 24.5178 115.337 25.0344C116.233 25.551 117.212 25.8093 118.274 25.8093C119.103 25.8093 119.85 25.7009 120.514 25.4843C121.194 25.2677 121.8 24.9761 122.331 24.6095C122.862 24.2262 123.326 23.793 123.725 23.3097V26.8341C123.011 27.434 122.223 27.8922 121.36 28.2088C120.514 28.5254 119.452 28.6837 118.174 28.6837C116.897 28.6837 115.702 28.4671 114.59 28.0339C113.495 27.6006 112.541 26.9757 111.728 26.1592C110.915 25.3427 110.276 24.3845 109.811 23.2847C109.363 22.1682 109.139 20.9518 109.139 19.6354C109.139 18.3023 109.363 17.0858 109.811 15.986C110.276 14.8696 110.915 13.9114 111.728 13.1116C112.541 12.295 113.495 11.6701 114.59 11.2369C115.702 10.787 116.897 10.562 118.174 10.562C119.452 10.562 120.514 10.7203 121.36 11.0369C122.223 11.3535 123.011 11.8201 123.725 12.4367V15.936C123.326 15.4695 122.862 15.0529 122.331 14.6863C121.8 14.303 121.194 14.0031 120.514 13.7864C119.85 13.5698 119.103 13.4615 118.274 13.4615C117.212 13.4615 116.233 13.7198 115.337 14.2363C114.441 14.7363 113.711 15.4528 113.147 16.386ZM126.839 13.6115H131.444V28.3838H134.381V13.6115H138.985V10.887H126.839V13.6115ZM144.762 16.436C144.248 17.3691 143.99 18.4356 143.99 19.6354C143.99 20.8352 144.248 21.9016 144.762 22.8348C145.276 23.768 145.973 24.5095 146.853 25.0594C147.749 25.5926 148.769 25.8592 149.914 25.8592C151.076 25.8592 152.096 25.5926 152.975 25.0594C153.871 24.5095 154.568 23.768 155.066 22.8348C155.581 21.9016 155.838 20.8352 155.838 19.6354C155.838 18.4356 155.589 17.3691 155.091 16.436C154.593 15.4861 153.896 14.7446 153 14.2114C152.121 13.6781 151.092 13.4115 149.914 13.4115C148.769 13.4115 147.749 13.6781 146.853 14.2114C145.973 14.7446 145.276 15.4861 144.762 16.436ZM141.551 23.2597C141.103 22.1433 140.879 20.9351 140.879 19.6354C140.879 18.3189 141.103 17.1108 141.551 16.011C141.999 14.9112 142.63 13.9614 143.443 13.1615C144.272 12.345 145.235 11.7118 146.33 11.2619C147.442 10.7953 148.636 10.562 149.914 10.562C151.225 10.562 152.428 10.7953 153.523 11.2619C154.618 11.7118 155.572 12.345 156.385 13.1615C157.215 13.9614 157.854 14.9112 158.302 16.011C158.75 17.1108 158.974 18.3189 158.974 19.6354C158.974 20.9351 158.75 22.1433 158.302 23.2597C157.854 24.3762 157.223 25.3427 156.41 26.1592C155.597 26.9757 154.643 27.6173 153.548 28.0838C152.453 28.5338 151.242 28.7587 149.914 28.7587C148.62 28.7587 147.417 28.5338 146.305 28.0838C145.21 27.6173 144.256 26.9757 143.443 26.1592C142.63 25.3427 141.999 24.3762 141.551 23.2597ZM172.98 28.3838L168.596 21.76H166.782V28.3838H163.846V10.887H165.588H166.782H169.222C170.499 10.887 171.603 11.1119 172.532 11.5618C173.461 12.0117 174.183 12.645 174.697 13.4615C175.228 14.2613 175.494 15.2112 175.494 16.311C175.494 17.4108 175.228 18.3689 174.697 19.1855C174.183 20.002 173.461 20.6352 172.532 21.0851C172.242 21.2253 171.936 21.3437 171.612 21.4402L176.539 28.3838H172.98ZM166.782 19.3104V13.4365H169.097C169.777 13.4365 170.367 13.5531 170.864 13.7864C171.362 14.0197 171.752 14.353 172.034 14.7862C172.316 15.2195 172.457 15.7527 172.457 16.386C172.457 17.0025 172.316 17.5358 172.034 17.9857C171.752 18.4189 171.362 18.7522 170.864 18.9855C170.367 19.2021 169.777 19.3104 169.097 19.3104H166.782ZM223.894 13.6115H219.29V10.887H231.436V13.6115H226.831V28.3838H223.894V13.6115ZM235.565 28.3838H238.552V10.887H235.565V28.3838ZM247.422 16.386C246.874 17.3025 246.601 18.3856 246.601 19.6354C246.601 20.8685 246.874 21.9516 247.422 22.8848C247.986 23.8013 248.716 24.5178 249.612 25.0344C250.508 25.551 251.487 25.8093 252.549 25.8093C253.379 25.8093 254.126 25.7009 254.789 25.4843C255.47 25.2677 256.075 24.9761 256.606 24.6095C257.137 24.2262 257.602 23.793 258 23.3097V26.8341C257.286 27.434 256.498 27.8922 255.636 28.2088C254.789 28.5254 253.727 28.6837 252.45 28.6837C251.172 28.6837 249.977 28.4671 248.866 28.0339C247.77 27.6006 246.816 26.9757 246.003 26.1592C245.19 25.3427 244.551 24.3845 244.087 23.2847C243.639 22.1682 243.415 20.9518 243.415 19.6354C243.415 18.3023 243.639 17.0858 244.087 15.986C244.551 14.8696 245.19 13.9114 246.003 13.1116C246.816 12.295 247.77 11.6701 248.866 11.2369C249.977 10.787 251.172 10.562 252.45 10.562C253.727 10.562 254.789 10.7203 255.636 11.0369C256.498 11.3535 257.286 11.8201 258 12.4367V15.936C257.602 15.4695 257.137 15.0529 256.606 14.6863C256.075 14.303 255.47 14.0031 254.789 13.7864C254.126 13.5698 253.379 13.4615 252.549 13.4615C251.487 13.4615 250.508 13.7198 249.612 14.2363C248.716 14.7363 247.986 15.4528 247.422 16.386Z" fill="black"/>
</svg>
